<svg xmlns="http://www.w3.org/2000/svg" xmlns:xlink="http://www.w3.org/1999/xlink" width="540" height="756" contentScriptType="application/ecmascript" contentStyleType="text/css" style="width:540px;height:756px" preserveAspectRatio="none" version="1.1" viewBox="0 0 540 756" zoomAndPan="magnify"><defs><filter id="f6mqfs0yuknax" width="300%" height="300%" x="-1" y="-1"><feGaussianBlur result="blurOut" stdDeviation="2.4"/><feColorMatrix in="blurOut" result="blurOut2" type="matrix" values="0 0 0 0 0 0 0 0 0 0 0 0 0 0 0 0 0 0 .4 0"/><feOffset dx="4.8" dy="4.8" in="blurOut2" result="blurOut3"/><feBlend in="SourceGraphic" in2="blurOut3" mode="normal"/></filter></defs><g><rect style="stroke:gray;stroke-width:1.7999999999999998" width="420" height="348" x="26.4" y="394.8" fill="#FFF" filter="url(#f6mqfs0yuknax)"/><path fill="none" d="M120,396 L120,406.1859 L108,418.1859 L26.4,418.1859" style="stroke:gray;stroke-width:1.7999999999999998"/><text x="30" y="412.242" fill="gray" font-family="sans-serif" font-size="16.8" font-weight="bold" lengthAdjust="spacingAndGlyphs" textLength="81.6">Edge Tier</text><rect style="stroke:gray;stroke-width:1.7999999999999998" width="148.8" height="104.4" x="55.2" y="446.4" fill="#FFF" filter="url(#f6mqfs0yuknax)"/><path fill="none" d="M141.6,447.6 L141.6,457.7859 L129.6,469.7859 L55.2,469.7859" style="stroke:gray;stroke-width:1.7999999999999998"/><text x="58.8" y="463.842" fill="gray" font-family="sans-serif" font-size="16.8" font-weight="bold" lengthAdjust="spacingAndGlyphs" textLength="74.4">Device A</text><rect style="stroke:gray;stroke-width:1.7999999999999998" width="184.8" height="104.4" x="232.8" y="446.4" fill="#FFF" filter="url(#f6mqfs0yuknax)"/><path fill="none" d="M379.2,447.6 L379.2,457.7859 L367.2,469.7859 L232.8,469.7859" style="stroke:gray;stroke-width:1.7999999999999998"/><text x="236.4" y="463.842" fill="gray" font-family="sans-serif" font-size="16.8" font-weight="bold" lengthAdjust="spacingAndGlyphs" textLength="134.4">Gateway Device</text><rect style="stroke:gray;stroke-width:1.7999999999999998" width="148.8" height="104.4" x="250.8" y="609.6" fill="#FFF" filter="url(#f6mqfs0yuknax)"/><path fill="none" d="M336,610.8 L336,620.9859 L324,632.9859 L250.8,632.9859" style="stroke:gray;stroke-width:1.7999999999999998"/><text x="254.4" y="627.042" fill="gray" font-family="sans-serif" font-size="16.8" font-weight="bold" lengthAdjust="spacingAndGlyphs" textLength="73.2">Device B</text><rect style="stroke:gray;stroke-width:1.7999999999999998" width="499.2" height="307.2" x="27.6" y="28.8" fill="#FFF" filter="url(#f6mqfs0yuknax)"/><path fill="none" d="M156,30 L156,40.1859 L144,52.1859 L27.6,52.1859" style="stroke:gray;stroke-width:1.7999999999999998"/><text x="31.2" y="46.242" fill="gray" font-family="sans-serif" font-size="16.8" font-weight="bold" lengthAdjust="spacingAndGlyphs" textLength="116.4">Platform Tier</text><polygon fill="#FFF" points="56.4 92.4 68.4 80.4 498 80.4 498 295.2 486 307.2 56.4 307.2 56.4 92.4" filter="url(#f6mqfs0yuknax)" style="stroke:#062b8c;stroke-width:1.7999999999999998"/><line style="stroke:#062b8c;stroke-width:1.7999999999999998" x1="486" x2="496.8" y1="92.4" y2="81.6"/><line style="stroke:#062b8c;stroke-width:1.7999999999999998" x1="56.4" x2="486" y1="92.4" y2="92.4"/><line style="stroke:#062b8c;stroke-width:1.7999999999999998" x1="486" x2="486" y1="92.4" y2="307.2"/><text x="150" y="112.242" fill="#062B8C" font-family="sans-serif" font-size="16.8" font-weight="bold" lengthAdjust="spacingAndGlyphs" textLength="244.8">ForgeRock Identity Platform</text><rect style="stroke:#062b8c;stroke-width:1.7999999999999998" width="109.2" height="43.786" x="75" y="488.4" fill="#FC6700" filter="url(#f6mqfs0yuknax)"/><rect style="stroke:#062b8c;stroke-width:1.7999999999999998" width="12" height="6" x="69" y="494.4" fill="#FC6700"/><rect style="stroke:#062b8c;stroke-width:1.7999999999999998" width="12" height="6" x="69" y="520.186" fill="#FC6700"/><text x="87" y="516.642" fill="#062B8C" font-family="sans-serif" font-size="16.8" lengthAdjust="spacingAndGlyphs" textLength="85.2">IoT SDK</text><rect style="stroke:#062b8c;stroke-width:1.7999999999999998" width="145.2" height="43.786" x="252.6" y="488.4" fill="#FC6700" filter="url(#f6mqfs0yuknax)"/><rect style="stroke:#062b8c;stroke-width:1.7999999999999998" width="12" height="6" x="246.6" y="494.4" fill="#FC6700"/><rect style="stroke:#062b8c;stroke-width:1.7999999999999998" width="12" height="6" x="246.6" y="520.186" fill="#FC6700"/><text x="264.6" y="516.642" fill="#062B8C" font-family="sans-serif" font-size="16.8" lengthAdjust="spacingAndGlyphs" textLength="121.2">IoT Gateway</text><rect style="stroke:#062b8c;stroke-width:1.7999999999999998" width="109.2" height="43.786" x="270.6" y="651.6" fill="#FC6700" filter="url(#f6mqfs0yuknax)"/><rect style="stroke:#062b8c;stroke-width:1.7999999999999998" width="12" height="6" x="264.6" y="657.6" fill="#FC6700"/><rect style="stroke:#062b8c;stroke-width:1.7999999999999998" width="12" height="6" x="264.6" y="683.386" fill="#FC6700"/><text x="282.6" y="679.842" fill="#062B8C" font-family="sans-serif" font-size="16.8" lengthAdjust="spacingAndGlyphs" textLength="85.2">IoT SDK</text><rect style="stroke:#062b8c;stroke-width:1.7999999999999998" width="190.8" height="43.786" x="76.2" y="244.8" fill="#FC6700" filter="url(#f6mqfs0yuknax)"/><rect style="stroke:#062b8c;stroke-width:1.7999999999999998" width="12" height="6" x="70.2" y="250.8" fill="#FC6700"/><rect style="stroke:#062b8c;stroke-width:1.7999999999999998" width="12" height="6" x="70.2" y="276.586" fill="#FC6700"/><text x="88.2" y="273.042" fill="#062B8C" font-family="sans-serif" font-size="16.8" lengthAdjust="spacingAndGlyphs" textLength="166.8">Access Management</text><rect style="stroke:#062b8c;stroke-width:1.7999999999999998" width="169.2" height="43.786" x="309" y="244.8" fill="#FC6700" filter="url(#f6mqfs0yuknax)"/><rect style="stroke:#062b8c;stroke-width:1.7999999999999998" width="12" height="6" x="303" y="250.8" fill="#FC6700"/><rect style="stroke:#062b8c;stroke-width:1.7999999999999998" width="12" height="6" x="303" y="276.586" fill="#FC6700"/><text x="321" y="273.042" fill="#062B8C" font-family="sans-serif" font-size="16.8" lengthAdjust="spacingAndGlyphs" textLength="145.2">Directory Services</text><rect style="stroke:#062b8c;stroke-width:1.7999999999999998" width="196.8" height="43.786" x="177.6" y="128.4" fill="#FC6700" filter="url(#f6mqfs0yuknax)"/><rect style="stroke:#062b8c;stroke-width:1.7999999999999998" width="12" height="6" x="171.6" y="134.4" fill="#FC6700"/><rect style="stroke:#062b8c;stroke-width:1.7999999999999998" width="12" height="6" x="171.6" y="160.186" fill="#FC6700"/><text x="189.6" y="156.642" fill="#062B8C" font-family="sans-serif" font-size="16.8" lengthAdjust="spacingAndGlyphs" textLength="172.8">Identity Management</text><path id="am&lt;-ac" fill="none" d="M166.932,294.384 C158.472,342.984 140.76,444.72 133.176,488.292" style="stroke:#062b8c;stroke-width:1.2"/><polygon fill="#062B8C" points="168.024 288.168 161.445 297.986 166.996 294.079 170.903 299.631 168.024 288.168" style="stroke:#062b8c;stroke-width:1.2"/><text x="157.2" y="371.482" fill="#062B8C" font-family="sans-serif" font-size="15.6" lengthAdjust="spacingAndGlyphs" textLength="74.4">HTTP/TLS</text><path id="am&lt;-gt" fill="none" d="M193.908,292.632 C208.548,309.648 227.652,333.024 242.4,355.2 C272.604,400.596 301.272,458.088 315.624,488.232" style="stroke:#062b8c;stroke-width:1.2"/><polygon fill="#062B8C" points="189.912 288 193.363 299.304 193.844 292.532 200.615 293.013 189.912 288" style="stroke:#062b8c;stroke-width:1.2"/><text x="255.6" y="371.482" fill="#062B8C" font-family="sans-serif" font-size="15.6" lengthAdjust="spacingAndGlyphs" textLength="74.4">HTTP/TLS</text><path id="gt&lt;-gc" fill="none" d="M325.2,537.984 C325.2,569.892 325.2,622.488 325.2,651.384" style="stroke:#062b8c;stroke-width:1.2"/><polygon fill="#062B8C" points="325.2 531.888 320.4 542.688 325.2 537.888 330 542.688 325.2 531.888" style="stroke:#062b8c;stroke-width:1.2"/><text x="326.4" y="586.282" fill="#062B8C" font-family="sans-serif" font-size="15.6" lengthAdjust="spacingAndGlyphs" textLength="88.8">COAP/DTLS</text><path id="am-&gt;ds" fill="none" d="M267.42,266.4 C279.18,266.4 290.928,266.4 302.676,266.4" style="stroke:#062b8c;stroke-width:1.2"/><polygon fill="#062B8C" points="308.82 266.4 298.02 261.6 302.82 266.4 298.02 271.2 308.82 266.4" style="stroke:#062b8c;stroke-width:1.2"/><path id="idm-&gt;am" fill="none" d="M256.848,172.104 C239.34,191.232 213.396,219.564 194.736,239.94" style="stroke:#062b8c;stroke-width:1.2"/><polygon fill="#062B8C" points="190.632 244.428 201.463 239.699 194.682 240.001 194.38 233.219 190.632 244.428" style="stroke:#062b8c;stroke-width:1.2"/><path id="idm-&gt;ds" fill="none" d="M297.564,172.104 C317.292,191.232 346.524,219.564 367.548,239.94" style="stroke:#062b8c;stroke-width:1.2"/><polygon fill="#062B8C" points="372.168 244.428 367.77 233.458 367.866 240.246 361.078 240.342 372.168 244.428" style="stroke:#062b8c;stroke-width:1.2"/></g></svg>